<svg width="439" height="101" viewBox="0 0 439 101"><g fill-rule="nonzero" fill="none"><g fill="#FFF" class="full"><path d="M159.18 54.95h-7.47a3.33 3.33 0 01-2-.57 3.63 3.63 0 01-1.17-1.46l-2.45-7h-15.91l-2.45 7a3.38 3.38 0 01-1.13 1.4 3.2 3.2 0 01-2 .62h-7.53l16.11-40.43h9.87l16.13 40.44zm-15.35-15.46l-3.85-11.07a41.36 41.36 0 01-.91-2.48c-.32-.953-.653-1.983-1-3.09a46.5 46.5 0 01-.91 3.14c-.32.967-.623 1.8-.91 2.5l-3.82 11h11.4zM176.06 47.54a9.07 9.07 0 003.46-.62 7 7 0 002.58-1.79 7.86 7.86 0 001.61-2.84 12.11 12.11 0 00.56-3.82v-24h9.64v24a18.26 18.26 0 01-1.24 6.83 15.28 15.28 0 01-3.55 5.36 16.09 16.09 0 01-5.62 3.5 22.9 22.9 0 01-14.92 0 16.1 16.1 0 01-5.62-3.5 15.11 15.11 0 01-3.54-5.36 18.43 18.43 0 01-1.24-6.84v-24h9.64v23.98a12.13 12.13 0 00.56 3.82 8 8 0 001.63 2.81 6.92 6.92 0 002.58 1.8 9.08 9.08 0 003.47.67z"></path> <path d="M225.32 21.95h-11.7v33h-9.64v-33h-11.69v-7.44h33zM267.27 34.72a21.22 21.22 0 01-1.55 8.16 19.63 19.63 0 01-4.38 6.56 20.12 20.12 0 01-6.8 4.37 25.46 25.46 0 01-17.67 0 20.25 20.25 0 01-6.83-4.37 19.51 19.51 0 01-4.39-6.56 22.19 22.19 0 010-16.32 19.36 19.36 0 014.39-6.55 20.36 20.36 0 016.83-4.36 23.81 23.81 0 018.84-1.58 23.52 23.52 0 018.83 1.6 20.41 20.41 0 016.8 4.37 19.49 19.49 0 014.38 6.55 21.15 21.15 0 011.55 8.13zm-9.87 0a17.05 17.05 0 00-.8-5.4 11.37 11.37 0 00-2.3-4.07 9.91 9.91 0 00-3.67-2.55 12.92 12.92 0 00-4.93-.89 13.1 13.1 0 00-5 .89 9.88 9.88 0 00-3.68 2.55 11.35 11.35 0 00-2.3 4.07 18.73 18.73 0 000 10.82 11.34 11.34 0 002.3 4.07 9.73 9.73 0 003.68 2.54 13.29 13.29 0 005 .87 13.1 13.1 0 004.93-.87 9.76 9.76 0 003.67-2.54 11.36 11.36 0 002.3-4.07 17.15 17.15 0 00.8-5.43v.01zM131.97 85.25h-2a.87.87 0 01-.56-.17 1.1 1.1 0 01-.33-.42l-1.35-3.47h-7l-1.35 3.47a1 1 0 01-.31.4.85.85 0 01-.56.19h-2l6.41-15.73h2.66l6.39 15.73zm-5-5.9l-2.22-5.75a15.52 15.52 0 01-.55-1.69c-.08.34-.17.653-.27.94-.1.287-.19.54-.27.76l-2.22 5.73 5.53.01zM147.64 83.19a4.31 4.31 0 001.67-.31c.473-.19.9-.48 1.25-.85.35-.38.616-.83.78-1.32a5.15 5.15 0 00.27-1.71v-9.48h2.57V79a7.08 7.08 0 01-.46 2.57 5.8 5.8 0 01-1.31 2 6 6 0 01-2.07 1.34 8 8 0 01-5.49 0 6 6 0 01-2.07-1.34 5.8 5.8 0 01-1.31-2 7.08 7.08 0 01-.46-2.57v-9.48h2.63v9.47a5.15 5.15 0 00.27 1.71c.164.488.426.937.77 1.32a3.46 3.46 0 001.24.86 4.31 4.31 0 001.72.31zM176.4 71.65h-5v13.6h-2.62v-13.6h-5.05v-2.13h12.71zM201.24 77.39a8.68 8.68 0 01-.58 3.22 7.43 7.43 0 01-1.64 2.54 7.52 7.52 0 01-2.55 1.67 9.36 9.36 0 01-6.6 0 7.58 7.58 0 01-2.55-1.67 7.37 7.37 0 01-1.65-2.54 9.18 9.18 0 010-6.44 7.43 7.43 0 011.65-2.54 7.54 7.54 0 012.55-1.67 9.37 9.37 0 016.6 0 7.35 7.35 0 014.19 4.22 8.68 8.68 0 01.58 3.21zm-2.68 0a7.39 7.39 0 00-.38-2.44 5.13 5.13 0 00-1.08-1.84 4.7 4.7 0 00-1.7-1.16 6.4 6.4 0 00-4.48 0 4.75 4.75 0 00-1.74 1.12 5.15 5.15 0 00-1.09 1.84 8 8 0 000 4.88 5.09 5.09 0 001.09 1.88 4.72 4.72 0 001.71 1.15 6.49 6.49 0 004.48 0 4.67 4.67 0 001.7-1.15 5.07 5.07 0 001.08-1.83 7.43 7.43 0 00.38-2.45h.03zM228.72 69.53v15.73h-2.31V74.47v-.57c0-.207.017-.417.05-.63l-5.2 9.34a1 1 0 01-.93.58h-.37a1 1 0 01-.93-.58l-5.28-9.36c0 .213.017.423.05.63.033.207.033.403 0 .59v10.78h-2.31V69.53h2a1.88 1.88 0 01.54.06.67.67 0 01.35.37l5.19 9.14c.113.213.22.43.32.65.1.22.193.447.28.68.087-.233.183-.463.29-.69.107-.227.213-.447.32-.66l5.11-9.12a.67.67 0 01.35-.37 1.88 1.88 0 01.54-.06h1.94zM255.18 77.39a8.69 8.69 0 01-.58 3.22 7.43 7.43 0 01-1.64 2.54 7.53 7.53 0 01-2.55 1.67 9.36 9.36 0 01-6.6 0 7.59 7.59 0 01-2.55-1.67 7.39 7.39 0 01-1.65-2.54 9.2 9.2 0 010-6.44 7.45 7.45 0 011.65-2.54 7.54 7.54 0 012.55-1.67 9.37 9.37 0 016.6 0 7.35 7.35 0 014.19 4.22 8.69 8.69 0 01.58 3.21zm-2.68 0a7.38 7.38 0 00-.38-2.44 5.13 5.13 0 00-1.08-1.84 4.69 4.69 0 00-1.7-1.16 6.41 6.41 0 00-4.48 0 4.75 4.75 0 00-1.68 1.12 5.15 5.15 0 00-1.09 1.84 8 8 0 000 4.88 5.09 5.09 0 001.09 1.88 4.72 4.72 0 001.71 1.15 6.49 6.49 0 004.48 0 4.66 4.66 0 001.7-1.15 5.07 5.07 0 001.08-1.83 7.41 7.41 0 00.38-2.45h-.03zM276.56 71.65h-5v13.6h-2.62v-13.6h-5.05v-2.13h12.71zM288.85 85.25h-2.67V69.53h2.64zM313.63 69.53l-6.56 15.73h-2.37l-6.52-15.73h2.1a.88.88 0 01.56.17c.142.111.255.255.33.42l4.17 10.26c.249.653.456 1.32.62 2 .08-.373.167-.727.26-1.06a9.49 9.49 0 01.31-.93l4.11-10.32a1.06 1.06 0 01.31-.4.85.85 0 01.56-.19l2.12.05zM333.02 83.19v2.06h-10.1V69.53H333v2.06h-7.44v4.74h5.95v2h-5.95v4.86zM367.39 71.65h-5v13.6h-2.62v-13.6h-5.09v-2.13h12.71zM392.18 77.39a8.69 8.69 0 01-.58 3.22 7.43 7.43 0 01-1.64 2.54 7.53 7.53 0 01-2.55 1.67 9.36 9.36 0 01-6.6 0 7.59 7.59 0 01-2.55-1.67 7.39 7.39 0 01-1.65-2.54 9.2 9.2 0 010-6.44 7.45 7.45 0 011.65-2.54 7.54 7.54 0 012.55-1.67 9.37 9.37 0 016.6 0 7.35 7.35 0 014.19 4.22 8.69 8.69 0 01.58 3.21zm-2.68 0a7.38 7.38 0 00-.38-2.44 5.13 5.13 0 00-1.08-1.84 4.69 4.69 0 00-1.7-1.16 6.41 6.41 0 00-4.48 0 4.75 4.75 0 00-1.68 1.12 5.15 5.15 0 00-1.09 1.84 8 8 0 000 4.88 5.09 5.09 0 001.09 1.88 4.72 4.72 0 001.71 1.15 6.49 6.49 0 004.48 0 4.66 4.66 0 001.7-1.15 5.07 5.07 0 001.08-1.83 7.41 7.41 0 00.4-2.45h-.05zM417.7 77.39a8.69 8.69 0 01-.58 3.22 7.43 7.43 0 01-1.64 2.54 7.53 7.53 0 01-2.55 1.67 9.36 9.36 0 01-6.6 0 7.59 7.59 0 01-2.55-1.67 7.39 7.39 0 01-1.65-2.54 9.2 9.2 0 010-6.44 7.45 7.45 0 011.65-2.54 7.54 7.54 0 012.55-1.67 9.37 9.37 0 016.6 0 7.35 7.35 0 014.19 4.22 8.69 8.69 0 01.58 3.21zm-2.68 0a7.38 7.38 0 00-.38-2.44 5.13 5.13 0 00-1.08-1.84 4.69 4.69 0 00-1.7-1.16 6.41 6.41 0 00-4.48 0 4.75 4.75 0 00-1.7 1.12 5.15 5.15 0 00-1.09 1.84 8 8 0 000 4.88 5.09 5.09 0 001.09 1.83 4.72 4.72 0 001.71 1.15 6.49 6.49 0 004.48 0 4.66 4.66 0 001.7-1.15 5.07 5.07 0 001.08-1.83 7.41 7.41 0 00.37-2.4zM437.32 83.07v2.14h-9.34V69.53h2.63v13.54zM297.33 19.07h-13.4v35.67h-5.57V19.07h-13.44v-4.6h32.41zM317.98 50.41a11.84 11.84 0 004.59-.84 9.64 9.64 0 003.42-2.36 10.25 10.25 0 002.14-3.63 14 14 0 00.74-4.64V14.47h5.57v24.48a17.92 17.92 0 01-1.14 6.46 14.62 14.62 0 01-8.45 8.57 19.72 19.72 0 01-13.75 0 15.09 15.09 0 01-5.2-3.42 14.85 14.85 0 01-3.28-5.16 17.92 17.92 0 01-1.14-6.46V14.47h5.57v24.45a14 14 0 00.74 4.64 10.26 10.26 0 002.14 3.63 9.75 9.75 0 003.44 2.37 11.77 11.77 0 004.61.85zM373.11 14.47v40.27h-2.8a2.46 2.46 0 01-1.11-.22 2.78 2.78 0 01-.88-.76L344.38 23.4c.04.467.07.927.09 1.38.02.453.02.873 0 1.26v28.7h-4.89V14.47h2.89a4.1 4.1 0 01.64 0c.16.024.314.071.46.14.146.074.28.169.4.28.154.143.298.297.43.46l23.94 30.33c-.04-.487-.073-.96-.1-1.42-.027-.46-.027-.897 0-1.31V14.47h4.87zM404.31 50.3v4.44h-25.53V14.47h25.5v4.44h-19.9v13.37h16.12v4.27h-16.12V50.3zM438.97 54.74h-5a2.47 2.47 0 01-2.25-1.15L421 39.2a3.15 3.15 0 00-1.05-1 3.94 3.94 0 00-1.75-.29h-4.25v16.83h-5.57V14.47h11.7a26.24 26.24 0 016.79.77 13.12 13.12 0 014.72 2.23 9 9 0 012.76 3.53 11.52 11.52 0 01.9 4.62 11.31 11.31 0 01-.69 4 10.5 10.5 0 01-2 3.33 12 12 0 01-3.21 2.52 16.15 16.15 0 01-4.3 1.6 5.48 5.48 0 011.85 1.71l12.07 15.96zm-19.12-20.77a14.52 14.52 0 004.29-.58 8.86 8.86 0 003.12-1.63 6.78 6.78 0 001.92-2.51 8 8 0 00.64-3.23 6.36 6.36 0 00-2.43-5.42c-1.62-1.22-4.047-1.83-7.28-1.83h-6.12v15.2h5.86z"></path></g> <path d="M100.18 9.58A9.58 9.58 0 0090.6 0h-81A9.58 9.58 0 00.02 9.58v58l25.51-52.56h14.7l17 70.17H46.1a4.1 4.1 0 01-4.37-3.12L39.1 68.38H13.3L1.18 95.21a9.58 9.58 0 008.42 5h81a9.58 9.58 0 009.58-9.58v-64.3H84.79l-7.46 58.85H63.02l7.35-58.85H55.46l-2.83-11.31h47.55V9.58zm-68 22.75c-.3-1.58-.58-3.287-.84-5.12a155.506 155.506 0 01-2.14 5.12l-1.84 4.16-9.79 22.15h19.68l-4.27-22.2c-.233-1.16-.5-2.53-.8-4.11z" fill="#FA0" class="simple"></path></g></svg>