<?xml version="1.0" encoding="UTF-8"?>
<svg id="Icons" xmlns="http://www.w3.org/2000/svg" viewBox="0 0 283.46 283.46">
  <defs>
    <style>
      .cls-1 {
        fill: #ffffff;
      }
    </style>
  </defs>
  <path class="cls-1" d="M94.85,156.6h-16.33c-2.75,0-4.97-2.23-4.97-4.98s2.23-4.98,4.97-4.98h16.33c2.75,0,4.97,2.23,4.97,4.98s-2.23,4.98-4.97,4.98Z"/>
  <path class="cls-1" d="M33.5,161.14h-14.36c-2.75,0-4.97-2.23-4.97-4.98s2.23-4.98,4.97-4.98h14.36c.46,0,.84-.38.84-.84l-.09-9.42c-.08-9.01,3.36-17.49,9.7-23.89,6.34-6.4,14.79-9.92,23.8-9.92h147.84c18.41,0,33.44,14.98,33.5,33.39l.03,9.6c0,.48.38.86.84.86h14.36c2.75,0,4.97,2.23,4.97,4.98s-2.23,4.98-4.97,4.98h-14.36c-5.95,0-10.79-4.84-10.79-10.79l-.03-9.58c-.04-12.94-10.61-23.47-23.55-23.47H67.75c-6.33,0-12.27,2.48-16.73,6.98s-6.88,10.46-6.82,16.79l.09,9.47c0,6-4.84,10.84-10.79,10.84Z"/>
  <path class="cls-1" d="M106.12,176.35h-38.86c-6.6,0-11.97-5.37-11.97-11.97v-25.51c0-6.6,5.37-11.97,11.97-11.97h38.86c6.6,0,11.97,5.37,11.97,11.97v25.51c0,6.6-5.37,11.97-11.97,11.97ZM67.26,136.84c-1.11,0-2.02.91-2.02,2.02v25.51c0,1.11.91,2.02,2.02,2.02h38.86c1.11,0,2.02-.91,2.02-2.02v-25.51c0-1.11-.91-2.02-2.02-2.02h-38.86Z"/>
  <path class="cls-1" d="M215.72,176.35h-74.3c-6.6,0-11.97-5.37-11.97-11.97v-25.51c0-6.6,5.37-11.97,11.97-11.97h74.3c6.6,0,11.97,5.37,11.97,11.97v25.51c0,6.6-5.37,11.97-11.97,11.97ZM141.42,136.84c-1.11,0-2.02.91-2.02,2.02v25.51c0,1.11.91,2.02,2.02,2.02h74.3c1.11,0,2.02-.91,2.02-2.02v-25.51c0-1.11-.91-2.02-2.02-2.02h-74.3Z"/>
  <path class="cls-1" d="M202.93,156.6h-48.73c-2.75,0-4.97-2.23-4.97-4.98s2.23-4.98,4.97-4.98h48.73c2.75,0,4.97,2.23,4.97,4.98s-2.23,4.98-4.97,4.98Z"/>
</svg>