<?xml version="1.0" encoding="UTF-8"?>
<svg id="Icons" xmlns="http://www.w3.org/2000/svg" viewBox="0 0 283.46 283.46">
  <defs>
    <style>
      .cls-1 {
        fill: #fcc02b;
      }
    </style>
  </defs>
  <path class="cls-1" d="M109.08,90.32c-2.34,0-4.23-1.89-4.23-4.23v-17.3c0-2.34,1.89-4.23,4.23-4.23s4.23,1.89,4.23,4.23v17.3c0,2.34-1.89,4.23-4.23,4.23Z"/>
  <path class="cls-1" d="M130.85,90.32c-2.34,0-4.23-1.89-4.23-4.23v-17.3c0-2.34,1.89-4.23,4.23-4.23s4.23,1.89,4.23,4.23v17.3c0,2.34-1.89,4.23-4.23,4.23Z"/>
  <path class="cls-1" d="M152.62,90.32c-2.34,0-4.23-1.89-4.23-4.23v-17.3c0-2.34,1.89-4.23,4.23-4.23s4.23,1.89,4.23,4.23v17.3c0,2.34-1.89,4.23-4.23,4.23Z"/>
  <path class="cls-1" d="M174.39,90.32c-2.34,0-4.23-1.89-4.23-4.23v-17.3c0-2.34,1.89-4.23,4.23-4.23s4.23,1.89,4.23,4.23v17.3c0,2.34-1.89,4.23-4.23,4.23Z"/>
  <path class="cls-1" d="M109.08,218.91c-2.34,0-4.23-1.89-4.23-4.23v-17.3c0-2.34,1.89-4.23,4.23-4.23s4.23,1.89,4.23,4.23v17.3c0,2.34-1.89,4.23-4.23,4.23Z"/>
  <path class="cls-1" d="M130.85,218.91c-2.34,0-4.23-1.89-4.23-4.23v-17.3c0-2.34,1.89-4.23,4.23-4.23s4.23,1.89,4.23,4.23v17.3c0,2.34-1.89,4.23-4.23,4.23Z"/>
  <path class="cls-1" d="M152.62,218.91c-2.34,0-4.23-1.89-4.23-4.23v-17.3c0-2.34,1.89-4.23,4.23-4.23s4.23,1.89,4.23,4.23v17.3c0,2.34-1.89,4.23-4.23,4.23Z"/>
  <path class="cls-1" d="M174.39,218.91c-2.34,0-4.23-1.89-4.23-4.23v-17.3c0-2.34,1.89-4.23,4.23-4.23s4.23,1.89,4.23,4.23v17.3c0,2.34-1.89,4.23-4.23,4.23Z"/>
  <path class="cls-1" d="M214.68,113.31h-17.3c-2.34,0-4.23-1.89-4.23-4.23s1.89-4.23,4.23-4.23h17.3c2.34,0,4.23,1.89,4.23,4.23s-1.89,4.23-4.23,4.23Z"/>
  <path class="cls-1" d="M214.68,135.08h-17.3c-2.34,0-4.23-1.89-4.23-4.23s1.89-4.23,4.23-4.23h17.3c2.34,0,4.23,1.89,4.23,4.23s-1.89,4.23-4.23,4.23Z"/>
  <path class="cls-1" d="M214.68,178.62h-17.3c-2.34,0-4.23-1.89-4.23-4.23s1.89-4.23,4.23-4.23h17.3c2.34,0,4.23,1.89,4.23,4.23s-1.89,4.23-4.23,4.23Z"/>
  <path class="cls-1" d="M214.68,156.85h-17.3c-2.34,0-4.23-1.89-4.23-4.23s1.89-4.23,4.23-4.23h17.3c2.34,0,4.23,1.89,4.23,4.23s-1.89,4.23-4.23,4.23Z"/>
  <path class="cls-1" d="M86.09,113.31h-17.3c-2.34,0-4.23-1.89-4.23-4.23s1.89-4.23,4.23-4.23h17.3c2.34,0,4.23,1.89,4.23,4.23s-1.89,4.23-4.23,4.23Z"/>
  <path class="cls-1" d="M86.09,135.08h-17.3c-2.34,0-4.23-1.89-4.23-4.23s1.89-4.23,4.23-4.23h17.3c2.34,0,4.23,1.89,4.23,4.23s-1.89,4.23-4.23,4.23Z"/>
  <path class="cls-1" d="M86.09,178.62h-17.3c-2.34,0-4.23-1.89-4.23-4.23s1.89-4.23,4.23-4.23h17.3c2.34,0,4.23,1.89,4.23,4.23s-1.89,4.23-4.23,4.23Z"/>
  <path class="cls-1" d="M86.09,156.85h-17.3c-2.34,0-4.23-1.89-4.23-4.23s1.89-4.23,4.23-4.23h17.3c2.34,0,4.23,1.89,4.23,4.23s-1.89,4.23-4.23,4.23Z"/>
  <path class="cls-1" d="M181.91,201.61h-80.36c-10.86,0-19.69-8.83-19.69-19.69v-80.36c0-10.86,8.83-19.69,19.69-19.69h80.36c10.86,0,19.69,8.83,19.69,19.69v80.36c0,10.86-8.83,19.69-19.69,19.69ZM101.55,90.32c-6.19,0-11.23,5.04-11.23,11.23v80.36c0,6.19,5.04,11.23,11.23,11.23h80.36c6.19,0,11.23-5.04,11.23-11.23v-80.36c0-6.19-5.04-11.23-11.23-11.23h-80.36Z"/>
</svg>