<?xml version="1.0" encoding="UTF-8"?>
<svg id="Icons" xmlns="http://www.w3.org/2000/svg" viewBox="0 0 283.46 283.46">
  <defs>
    <style>
      .cls-1 {
        fill: #00a4d4;
      }
    </style>
  </defs>
  <path class="cls-1" d="M187.58,184.54h-91.69c-10.36,0-19.61-6.57-23.03-16.35l-12.86-36.83c-2.64-7.56-1.49-15.64,3.14-22.16,4.63-6.53,11.88-10.27,19.89-10.27h117.41c8,0,15.25,3.74,19.89,10.27,4.63,6.53,5.78,14.6,3.14,22.16l-12.86,36.83c-3.42,9.78-12.67,16.35-23.03,16.35ZM83.03,107.39c-5.23,0-9.96,2.44-12.99,6.71-3.03,4.26-3.77,9.54-2.05,14.47l12.86,36.83c2.23,6.39,8.27,10.68,15.04,10.68h91.69c6.77,0,12.81-4.29,15.04-10.68l12.86-36.83c1.72-4.94.98-10.21-2.05-14.47-3.03-4.26-7.76-6.71-12.99-6.71h-117.41Z"/>
  <path class="cls-1" d="M191.26,145.96h-99.06c-2.34,0-4.23-1.89-4.23-4.23s1.89-4.23,4.23-4.23h99.06c2.34,0,4.23,1.89,4.23,4.23s-1.89,4.23-4.23,4.23Z"/>
  <path class="cls-1" d="M101.16,168.03c-2.34,0-4.23-1.89-4.23-4.23v-5.56c0-2.34,1.89-4.23,4.23-4.23s4.23,1.89,4.23,4.23v5.56c0,2.34-1.89,4.23-4.23,4.23Z"/>
  <path class="cls-1" d="M127.86,168.03c-2.34,0-4.23-1.89-4.23-4.23v-5.56c0-2.34,1.89-4.23,4.23-4.23s4.23,1.89,4.23,4.23v5.56c0,2.34-1.89,4.23-4.23,4.23Z"/>
  <path class="cls-1" d="M154.56,168.03c-2.34,0-4.23-1.89-4.23-4.23v-5.56c0-2.34,1.89-4.23,4.23-4.23s4.23,1.89,4.23,4.23v5.56c0,2.34-1.89,4.23-4.23,4.23Z"/>
  <path class="cls-1" d="M181.26,168.03c-2.34,0-4.23-1.89-4.23-4.23v-5.56c0-2.34,1.89-4.23,4.23-4.23s4.23,1.89,4.23,4.23v5.56c0,2.34-1.89,4.23-4.23,4.23Z"/>
  <path class="cls-1" d="M101.16,129.45c-2.34,0-4.23-1.89-4.23-4.23v-5.56c0-2.34,1.89-4.23,4.23-4.23s4.23,1.89,4.23,4.23v5.56c0,2.34-1.89,4.23-4.23,4.23Z"/>
  <path class="cls-1" d="M127.86,129.45c-2.34,0-4.23-1.89-4.23-4.23v-5.56c0-2.34,1.89-4.23,4.23-4.23s4.23,1.89,4.23,4.23v5.56c0,2.34-1.89,4.23-4.23,4.23Z"/>
  <path class="cls-1" d="M154.56,129.45c-2.34,0-4.23-1.89-4.23-4.23v-5.56c0-2.34,1.89-4.23,4.23-4.23s4.23,1.89,4.23,4.23v5.56c0,2.34-1.89,4.23-4.23,4.23Z"/>
  <path class="cls-1" d="M181.26,129.45c-2.34,0-4.23-1.89-4.23-4.23v-5.56c0-2.34,1.89-4.23,4.23-4.23s4.23,1.89,4.23,4.23v5.56c0,2.34-1.89,4.23-4.23,4.23Z"/>
</svg>